<svg xmlns="http://www.w3.org/2000/svg" xml:space="preserve" width="800" height="800" viewBox="0 0 480.016 480.016"><path d="M426.224 363.84h-42.648c.744-8.16 1.24-9.968 1.256-14.744.128-42.672-28.36-80.592-70.032-89.776-23.752-5.232-46.432-1.68-65.192 8.44-22.888-34.064-60.816-57.2-104.272-59.856-5.592-.768-11.256-1.304-17.056-1.304C57.432 206.6 0 265.832 0 338.888c0 38.072 15.688 72.288 40.648 96.424 22.072 24.488 52.72 40.304 89.008 42.936 0 0 295.448 1.464 296.568 1.464 29.712 0 53.792-25.936 53.792-57.936s-24.08-57.936-53.792-57.936" style="fill:#92c7d3"/><path d="M363 1.976c10.28 17.208 16.304 37.264 16.304 58.768 0 63.44-51.432 114.872-114.872 114.872-.144 0-.28-.024-.424-.024 20.056 33.568 56.632 56.112 98.576 56.112 63.44 0 114.872-51.432 114.872-114.872C477.456 53.528 426.248 2.208 363 1.976M76.552 149.28l15.008 30.416 33.568 4.88-24.288 23.672 5.736 33.432-30.024-15.784-30.024 15.784 5.736-33.432-24.288-23.672 33.568-4.88zM192.416.304l15.016 30.416L241 35.6l-24.288 23.68 5.728 33.424-30.024-15.784L162.4 92.704l5.728-33.424L143.84 35.6l33.568-4.88z" style="fill:#fce674"/></svg>