<svg xmlns="http://www.w3.org/2000/svg" xml:space="preserve" width="800" height="800" viewBox="0 0 481.321 481.321"><path d="M157.027 273.72V49.648C157.027 22.224 134.795 0 107.379 0 79.955 0 57.731 22.232 57.731 49.648v226.496c-37.312 20.312-61.464 61.736-56.4 108.224 5.456 50.096 46.016 90.736 96.104 96.264 65.888 7.28 121.648-44.112 121.648-108.528 0-43.392-25.384-80.776-62.056-98.384" style="fill:#92c7d3"/><path d="M132.195 304.872v-89.728c0-13.712-11.112-24.824-24.824-24.824s-24.824 11.112-24.824 24.824v91.048c-26.112 10.32-44.832 35.28-45.904 64.792-1.44 39.632 30.8 74.12 70.448 75.232 41.04 1.152 74.664-31.776 74.664-72.552.008-32.024-20.768-59.16-49.56-68.792M123.459 71.992h-32c-4.416 0-8-3.576-8-8s3.584-8 8-8h32c4.416 0 8 3.576 8 8s-3.584 8-8 8M123.459 119.992h-32c-4.416 0-8-3.576-8-8s3.584-8 8-8h32c4.416 0 8 3.576 8 8s-3.584 8-8 8M123.459 167.992h-32c-4.416 0-8-3.576-8-8s3.584-8 8-8h32c4.416 0 8 3.576 8 8s-3.584 8-8 8" style="fill:#e4f1f4"/><path d="M232.755 177.232a7.98 7.98 0 0 1-5.656-2.344 7.99 7.99 0 0 1 0-11.312L338.907 51.768c3.128-3.128 8.184-3.128 11.312 0s3.128 8.184 0 11.312L238.411 174.888a7.96 7.96 0 0 1-5.656 2.344" style="fill:#bedde5"/><path d="M344.563 177.232a7.98 7.98 0 0 1-5.656-2.344L227.099 63.08c-3.128-3.128-3.128-8.184 0-11.312s8.184-3.128 11.312 0l111.816 111.816a7.991 7.991 0 0 1-5.664 13.648" style="fill:#bedde5"/><path d="M296.659 157.8V68.648l21.936-21.864c3.136-3.12 3.144-8.176.024-11.312s-8.184-3.152-11.312-.016l-10.648 10.608V33.328c0-4.424-3.584-8-8-8s-8 3.576-8 8V46.04l-10.6-10.584c-3.136-3.12-8.2-3.136-11.32.016-3.12 3.128-3.112 8.184.008 11.312l21.912 21.864v89.16l-21.904 21.856a7.99 7.99 0 0 0-.008 11.312c3.12 3.136 8.184 3.136 11.32.016l10.592-10.584v12.92c0 4.424 3.584 8 8 8s8-3.576 8-8v-12.944l10.648 10.608c1.56 1.56 3.6 2.336 5.648 2.336s4.104-.784 5.664-2.352a7.99 7.99 0 0 0-.024-11.312z" style="fill:#bedde5"/><path d="M368.659 105.328h-13.528l9.736-10.584a7.996 7.996 0 0 0-.472-11.304c-3.248-2.992-8.32-2.784-11.304.48l-19.696 21.408h-90.128l-20.568-21.52a7.993 7.993 0 0 0-11.312-.256c-3.192 3.048-3.312 8.12-.256 11.304l10.008 10.472h-12.48c-4.416 0-8 3.576-8 8s3.584 8 8 8h12.456l-11.032 10.992a8 8 0 1 0 11.288 11.344l22.424-22.336h89.656l20.888 22.152a7.97 7.97 0 0 0 5.824 2.512c1.968 0 3.944-.72 5.488-2.176a8 8 0 0 0 .336-11.304l-10.544-11.184h13.216c4.416 0 8-3.576 8-8s-3.584-8-8-8" style="fill:#bedde5"/><circle cx="289.059" cy="112.904" r="29.824" style="fill:#e4f1f4"/><path d="M289.083 150.736c-20.856 0-37.824-16.968-37.824-37.832s16.968-37.832 37.824-37.832 37.832 16.968 37.832 37.832-16.976 37.832-37.832 37.832m0-59.656c-12.032 0-21.824 9.792-21.824 21.832s9.792 21.832 21.824 21.832 21.832-9.792 21.832-21.832-9.8-21.832-21.832-21.832M336.755 401.232a7.98 7.98 0 0 1-5.656-2.344 7.99 7.99 0 0 1 0-11.312L442.915 275.76c3.128-3.128 8.184-3.128 11.312 0s3.128 8.184 0 11.312L342.411 398.888a7.96 7.96 0 0 1-5.656 2.344" style="fill:#bedde5"/><path d="M448.563 401.232a7.98 7.98 0 0 1-5.656-2.344L331.099 287.08c-3.128-3.128-3.128-8.184 0-11.312s8.184-3.128 11.312 0l111.816 111.816a7.991 7.991 0 0 1-5.664 13.648" style="fill:#bedde5"/><path d="M400.659 381.8v-89.152l21.936-21.864a7.99 7.99 0 0 0 .024-11.312c-3.12-3.136-8.192-3.152-11.312-.016l-10.648 10.608v-12.736c0-4.424-3.584-8-8-8s-8 3.576-8 8v12.712l-10.6-10.584c-3.136-3.12-8.2-3.128-11.32.016-3.12 3.128-3.112 8.184.008 11.312l21.912 21.864v89.16l-21.904 21.856a7.99 7.99 0 0 0-.008 11.312c3.12 3.144 8.184 3.128 11.32.016l10.592-10.584v12.92c0 4.424 3.584 8 8 8s8-3.576 8-8v-12.944l10.648 10.608c1.56 1.56 3.6 2.336 5.648 2.336s4.104-.784 5.664-2.352a7.99 7.99 0 0 0-.024-11.312z" style="fill:#bedde5"/><path d="M472.659 329.328h-13.528l9.736-10.584a7.996 7.996 0 0 0-.472-11.304c-3.248-2.992-8.328-2.784-11.304.48l-19.696 21.408h-90.128l-20.568-21.52a7.986 7.986 0 0 0-11.312-.256c-3.192 3.048-3.312 8.12-.256 11.304l10.008 10.472h-12.48c-4.416 0-8 3.576-8 8s3.584 8 8 8h12.456l-11.032 10.992a8 8 0 1 0 11.288 11.344l22.424-22.336h89.656l20.888 22.152a7.97 7.97 0 0 0 5.824 2.512c1.968 0 3.944-.72 5.488-2.176a8 8 0 0 0 .336-11.304l-10.544-11.184h13.216c4.416 0 8-3.576 8-8s-3.584-8-8-8" style="fill:#bedde5"/><circle cx="393.059" cy="336.904" r="29.824" style="fill:#e4f1f4"/><path d="M393.083 374.736c-20.856 0-37.824-16.968-37.824-37.832s16.968-37.832 37.824-37.832 37.832 16.968 37.832 37.832-16.976 37.832-37.832 37.832m0-59.656c-12.032 0-21.824 9.792-21.824 21.832s9.792 21.832 21.824 21.832 21.832-9.792 21.832-21.832-9.8-21.832-21.832-21.832" style="fill:#bedde5"/></svg>