<svg xmlns="http://www.w3.org/2000/svg" xml:space="preserve" width="800" height="800" viewBox="0 0 96 96"><path d="M21 53a2 2 0 0 0 2-2c0-3.859 3.141-7 7-7 .277 0 .723.068 1.193.162V46a2 2 0 0 0 4 0v-3.219C36.266 36.528 41.629 32 48 32s11.734 4.528 12.807 10.781V46a2 2 0 0 0 4 0v-1.838c.47-.094.916-.162 1.193-.162 3.859 0 7 3.141 7 7a2 2 0 0 0 4 0c0-6.065-4.935-11-11-11-.507 0-1.112.079-1.689.184C62.219 33.012 55.664 28 48 28s-14.219 5.012-16.312 12.184C31.112 40.079 30.507 40 30 40c-6.065 0-11 4.935-11 11a2 2 0 0 0 2 2M40 59a2 2 0 0 0 2 2h36a2 2 0 0 0 0-4H42a2 2 0 0 0-2 2M48 64a2 2 0 0 0 0 4h27a2 2 0 0 0 0-4zM78 71H54a2 2 0 0 0 0 4h24a2 2 0 0 0 0-4M18 61h18a2 2 0 0 0 0-4H18a2 2 0 0 0 0 4M21 64a2 2 0 0 0 0 4h21a2 2 0 0 0 0-4zM48 71H18a2 2 0 0 0 0 4h30a2 2 0 0 0 0-4"/></svg>