<svg xmlns="http://www.w3.org/2000/svg" xml:space="preserve" width="800" height="800" viewBox="0 0 481.12 481.12"><path d="M427.2 162.4h-42.744c.744-8 1.24-11.184 1.256-15.976.128-42.768-28.424-81.376-70.192-90.584-23.808-5.248-46.536-1.984-65.336 8.16-22.936-34.144-60.952-57.48-104.512-60.144-5.608-.768-11.28-1.384-17.096-1.384C57.568 2.472 0 61.8 0 135.032c0 38.16 15.72 72.432 40.744 96.624 22.12 24.544 52.84 40.384 89.216 43.024 0 0 296.12 1.464 297.24 1.464 29.776 0 53.92-24.8 53.92-56.872S456.976 162.4 427.2 162.4" style="fill:#77b9c8"/><path d="M34.552 478.648a7.94 7.94 0 0 1-3.992-1.072 7.99 7.99 0 0 1-2.928-10.928l28-48.496c2.208-3.832 7.112-5.144 10.928-2.928a7.99 7.99 0 0 1 2.928 10.928l-28 48.496a7.99 7.99 0 0 1-6.936 4M82.552 478.648a7.94 7.94 0 0 1-3.992-1.072 7.99 7.99 0 0 1-2.928-10.928l28-48.496c2.208-3.832 7.112-5.144 10.928-2.928a7.99 7.99 0 0 1 2.928 10.928l-28 48.496a7.99 7.99 0 0 1-6.936 4M130.552 478.648a7.94 7.94 0 0 1-3.992-1.072 7.99 7.99 0 0 1-2.928-10.928l28-48.496a7.99 7.99 0 0 1 10.928-2.928 7.99 7.99 0 0 1 2.928 10.928l-28 48.496a7.99 7.99 0 0 1-6.936 4M178.552 478.648a7.94 7.94 0 0 1-3.992-1.072 7.99 7.99 0 0 1-2.928-10.928l28-48.496c2.208-3.832 7.112-5.144 10.928-2.928a7.99 7.99 0 0 1 2.928 10.928l-28 48.496a7.99 7.99 0 0 1-6.936 4M370.552 478.648a7.94 7.94 0 0 1-3.992-1.072 7.99 7.99 0 0 1-2.928-10.928l28-48.496c2.208-3.832 7.112-5.144 10.928-2.928a7.99 7.99 0 0 1 2.928 10.928l-28 48.496a7.99 7.99 0 0 1-6.936 4M322.552 478.648a7.94 7.94 0 0 1-3.992-1.072 7.99 7.99 0 0 1-2.928-10.928l28-48.496c2.216-3.832 7.104-5.144 10.928-2.928a7.99 7.99 0 0 1 2.928 10.928l-28 48.496a7.99 7.99 0 0 1-6.936 4M418.552 478.648a7.94 7.94 0 0 1-3.992-1.072 7.99 7.99 0 0 1-2.928-10.928l28-48.496a7.99 7.99 0 0 1 10.928-2.928 7.99 7.99 0 0 1 2.928 10.928l-28 48.496a7.99 7.99 0 0 1-6.936 4" style="fill:#92c7d3"/><path d="m88.272 369.2 25.496-70.208-44.864-25.904 102.568-113.624-27.368 99.576 57.52 33.208zM260.616 452.152l25.496-70.208-44.864-25.904 102.568-113.624-27.368 99.568 57.52 33.208z" style="fill:#fdc567"/></svg>