<svg xmlns="http://www.w3.org/2000/svg" xml:space="preserve" width="800" height="800" viewBox="0 0 96 96"><path d="m74.977 61.269-6.212-3.587 3.535-.947a2 2 0 0 0-1.035-3.863l-7.398 1.982-5.493-3.171 6.533-1.751a2 2 0 0 0 .261-3.773l-5.763-2.436 4.463-2.577 7.396 1.981q.262.07.519.069a2 2 0 0 0 .517-3.932l-3.532-.946 6.211-3.586a2.001 2.001 0 0 0-2-3.464l-6.21 3.585.945-3.53a2 2 0 0 0-1.414-2.449 1.994 1.994 0 0 0-2.449 1.414l-1.98 7.394-4.463 2.577.771-6.207a1.998 1.998 0 0 0-3.19-1.842l-4.988 3.771v-5.152l5.412-5.412a2 2 0 1 0-2.828-2.828l-2.584 2.584V18a2 2 0 0 0-4 0v7.174l-2.587-2.588a2 2 0 1 0-2.828 2.828l5.415 5.416v5.15l-4.991-3.777a1.998 1.998 0 0 0-3.138 2.113l1.752 6.54-5.493-3.171-1.983-7.396a2 2 0 0 0-3.863 1.035l.946 3.531-6.211-3.586a2 2 0 1 0-2 3.464l6.21 3.585-3.53.946a2 2 0 1 0 1.036 3.863l7.394-1.981 5.492 3.171-6.529 1.75a1.997 1.997 0 0 0-.26 3.773l5.76 2.436-4.464 2.577-7.391-1.981a2 2 0 0 0-1.035 3.863l3.527.946-6.208 3.584a2 2 0 1 0 2 3.464l6.213-3.587-.947 3.535a2 2 0 0 0 3.863 1.035l1.982-7.398 4.461-2.575-.771 6.208a2 2 0 0 0 3.19 1.842L46 60.018v5.153l-5.415 5.415a2 2 0 1 0 2.828 2.828L46 70.827V78a2 2 0 0 0 4 0v-7.171l2.585 2.585c.391.391.902.586 1.414.586s1.023-.195 1.414-.586a2 2 0 0 0 0-2.828L50 65.173v-5.152l4.994 3.777a1.995 1.995 0 0 0 2.323.064 2 2 0 0 0 .814-2.178l-1.754-6.535 5.494 3.172 1.979 7.392a2 2 0 1 0 3.864-1.035l-.944-3.528 6.208 3.584a2 2 0 1 0 1.999-3.465m-16.73-13.694-4.772 1.279L51.996 48l3.067-1.771zm-4.622-9.323-.561 4.512-3.065 1.77v-3.539zm-10.385.657 2.759 2.087v3.542l-1.48-.854zm-5.493 9.516 4.769-1.278 1.478.853-3.065 1.771zm4.623 9.322.56-4.513L46 51.462v3.541zm10.388-.655L50 55.007v-3.54l1.477.854z"/></svg>