<svg xmlns="http://www.w3.org/2000/svg" xml:space="preserve" width="800" height="800" viewBox="0 0 96 96"><path d="m78.485 31.061-24.001-6c-.028-.007-.058-.005-.086-.011a2 2 0 0 0-.27-.035q-.074-.007-.149-.008a2 2 0 0 0-.304.03c-.038.006-.076.008-.112.017a2 2 0 0 0-.385.127q-.01.005-.021.008a2 2 0 0 0-.357.213l-8.8 6.6v-6.424a5 5 0 0 0 3-4.576c0-2.757-2.243-5-5-5s-5 2.243-5 5a5 5 0 0 0 3 4.576v50.424H18a2 2 0 0 0 0 4h48a2 2 0 0 0 0-4H44v-36l8.8 6.6c.108.081.229.125.346.181.074.035.14.088.218.114q.312.104.635.105H54l.019-.002a2 2 0 0 0 .448-.056l.018-.002 24.001-6a2 2 0 0 0 1.515-1.94v-6a2 2 0 0 0-1.516-1.941M52 41.001l-6.667-5 6.667-5zm-10-21a1.001 1.001 0 1 1-1 1c0-.552.449-1 1-1m14 9.561 8 2v8.877l-8 2zm20 7.877-8 2v-6.877l8 2z"/></svg>