<svg xmlns="http://www.w3.org/2000/svg" xml:space="preserve" width="800" height="800" viewBox="0 0 495 495"><path d="m434.477 227.821 44.392-49.161-64.811-13.679-33.036-57.411v159.088l60.474 27.03z" style="fill:#ffde55"/><path d="m347.986 164.981-64.811 13.679 44.393 49.161-7.018 65.867 60.472-27.03V107.57z" style="fill:#ffeb99"/><path d="M288.544 458.73c-90.69-22.63-160.01-108.71-160.01-211.23s69.32-188.6 160.01-211.23c30.19-7.54 59.89-8.18 87.48-3.08C339.614 12.12 297.374 0 252.284 0c-136.7 0-247.5 110.81-247.5 247.5s110.8 247.5 247.5 247.5c45.09 0 87.33-12.12 123.74-33.19-27.59 5.1-57.29 4.46-87.48-3.08" style="fill:#ffeb99"/><path d="M252.284 247.5c0-91.59 49.79-171.51 123.74-214.31-27.59-5.1-57.29-4.46-87.48 3.08-90.69 22.63-160.01 108.71-160.01 211.23s69.32 188.6 160.01 211.23c30.19 7.54 59.89 8.18 87.48 3.08-73.95-42.8-123.74-122.72-123.74-214.31M490.216 342.579l-32.224-6.802-16.427-28.549.001 79.104 30.071 13.439-3.493-32.75z" style="fill:#ffde55"/><path d="m425.138 335.777-32.224 6.802 22.073 24.443-3.489 32.749 30.068-13.439-.001-79.104z" style="fill:#ffeb99"/></svg>