<svg xmlns="http://www.w3.org/2000/svg" xml:space="preserve" width="800" height="800" viewBox="0 0 481.329 481.329"><path d="M161.123 273.72V49.648C161.123 22.232 138.891 0 111.475 0 84.051 0 61.827 22.232 61.827 49.648v226.496C24.523 296.456.371 337.88 5.435 384.376c5.456 50.096 46.016 90.736 96.104 96.264 65.888 7.28 121.648-44.112 121.648-108.528 0-43.4-25.384-80.776-62.064-98.392" style="fill:#fcb641"/><path d="M135.555 302.744V216c0-13.256-10.744-24-24-24s-24 10.744-24 24v88.024c-25.24 9.976-43.336 34.112-44.376 62.64-1.392 38.312 29.776 71.656 68.104 72.728 39.672 1.112 72.184-30.72 72.184-70.144 0-30.96-20.08-57.192-47.912-66.504M127.563 183.504a7.98 7.98 0 0 1-6.808-3.792l-8.712-14.08-9.888 14.4a7.99 7.99 0 0 1-11.128 2.064c-3.64-2.496-4.56-7.488-2.064-11.128l16.832-24.496c1.528-2.224 3.984-3.544 6.784-3.472a8.03 8.03 0 0 1 6.608 3.792l15.168 24.496a8 8 0 0 1-2.592 11.016 7.9 7.9 0 0 1-4.2 1.2M127.563 135.504a7.98 7.98 0 0 1-6.808-3.792l-8.712-14.08-9.888 14.4a7.99 7.99 0 0 1-11.128 2.064c-3.64-2.496-4.56-7.488-2.064-11.128l16.832-24.496c1.528-2.224 3.984-3.56 6.784-3.472a8.03 8.03 0 0 1 6.608 3.792l15.168 24.496a8 8 0 0 1-2.592 11.016 7.9 7.9 0 0 1-4.2 1.2M127.563 87.504a7.98 7.98 0 0 1-6.808-3.792l-8.712-14.08-9.888 14.4a7.995 7.995 0 0 1-11.128 2.064c-3.64-2.496-4.56-7.488-2.064-11.128l16.832-24.496c1.528-2.224 3.984-3.4 6.784-3.472a8.03 8.03 0 0 1 6.608 3.792l15.168 24.496a8 8 0 0 1-2.592 11.016 7.9 7.9 0 0 1-4.2 1.2" style="fill:#e66032"/><ellipse cx="337.795" cy="170.744" rx="138.768" ry="141.256" style="fill:#fcb641"/><path d="M439.555 312c-4.416 0-8-3.576-8-8v-56c0-4.424 3.584-8 8-8s8 3.576 8 8v56c0 4.424-3.584 8-8 8M439.555 360c-4.416 0-8-3.576-8-8v-16c0-4.424 3.584-8 8-8s8 3.576 8 8v16c0 4.424-3.584 8-8 8M359.555 368c-4.416 0-8-3.576-8-8v-56c0-4.424 3.584-8 8-8s8 3.576 8 8v56c0 4.424-3.584 8-8 8M359.555 416c-4.416 0-8-3.576-8-8v-16c0-4.424 3.584-8 8-8s8 3.576 8 8v16c0 4.424-3.584 8-8 8M271.555 328c-4.416 0-8-3.576-8-8v-24c0-4.424 3.584-8 8-8s8 3.576 8 8v24c0 4.424-3.584 8-8 8M271.555 376c-4.416 0-8-3.576-8-8v-16c0-4.424 3.584-8 8-8s8 3.576 8 8v16c0 4.424-3.584 8-8 8" style="fill:#fcb641"/></svg>