<svg xmlns="http://www.w3.org/2000/svg" xml:space="preserve" width="800" height="800" viewBox="0 0 480 480"><path d="M426.208 168.036H383.56c.744-8 1.24-13.624 1.256-18.408.128-42.672-28.36-82.424-70.032-91.6-23.752-5.232-46.424-2.6-65.184 7.528C226.712 31.492 188.792 7.9 145.328 5.244c-5.592-.768-11.256-1.528-17.056-1.528C57.432 3.708 0 62.82 0 135.876c0 38.072 15.688 72.232 40.648 96.368 22.072 24.488 52.72 40.272 89.008 42.904 0 0 295.432 1.448 296.552 1.448 29.712 0 53.792-22.288 53.792-54.28s-24.088-54.28-53.792-54.28" style="fill:#77b9c8"/><path d="M392.48 288.036h-37.672c.656-8 1.096-7.976 1.104-12.2.112-37.696-25.048-70.776-61.856-78.888-20.984-4.624-41.008-1.28-57.584 7.664-20.216-30.088-53.72-50.424-92.104-52.768-4.944-.68-9.944-1.096-15.064-1.096C66.728 150.74 16 203.084 16 267.62c0 33.632 13.856 63.864 35.904 85.184 19.496 21.632 46.568 35.608 78.624 37.936 0 0 260.968 1.296 261.96 1.296 26.24 0 47.52-23.736 47.52-52-.008-28.264-21.28-52-47.528-52" style="fill:#92c7d3"/></svg>