<?xml version="1.0" encoding="iso-8859-1"?>
<!-- Uploaded to: SVG Repo, www.svgrepo.com, Generator: SVG Repo Mixer Tools -->
<svg height="800px" width="800px" version="1.1" id="Layer_1" xmlns="http://www.w3.org/2000/svg" xmlns:xlink="http://www.w3.org/1999/xlink" 
	 viewBox="0 0 480 480" xml:space="preserve">
<path style="fill:#77B9C8;" d="M426.208,168.036c-1.12,0-42.648,0-42.648,0c0.744-8,1.24-13.624,1.256-18.408
	c0.128-42.672-28.36-82.424-70.032-91.6c-23.752-5.232-46.424-2.6-65.184,7.528C226.712,31.492,188.792,7.9,145.328,5.244
	c-5.592-0.768-11.256-1.528-17.056-1.528C57.432,3.708,0,62.82,0,135.876c0,38.072,15.688,72.232,40.648,96.368
	c22.072,24.488,52.72,40.272,89.008,42.904c0,0,295.432,1.448,296.552,1.448c29.712,0,53.792-22.288,53.792-54.28
	S455.912,168.036,426.208,168.036z"/>
<path style="fill:#92C7D3;" d="M392.48,288.036c-0.992,0-37.672,0-37.672,0c0.656-8,1.096-7.976,1.104-12.2
	c0.112-37.696-25.048-70.776-61.856-78.888c-20.984-4.624-41.008-1.28-57.584,7.664c-20.216-30.088-53.72-50.424-92.104-52.768
	c-4.944-0.68-9.944-1.096-15.064-1.096C66.728,150.74,16,203.084,16,267.62c0,33.632,13.856,63.864,35.904,85.184
	c19.496,21.632,46.568,35.608,78.624,37.936c0,0,260.968,1.296,261.96,1.296c26.24,0,47.52-23.736,47.52-52
	C440,311.772,418.728,288.036,392.48,288.036z"/>
</svg>