<svg xmlns="http://www.w3.org/2000/svg" xml:space="preserve" width="800" height="800" viewBox="0 0 480 480"><path d="M426.208 158.964H383.56c.744-8.16 1.24-9.968 1.256-14.744.128-42.672-28.36-80.592-70.032-89.776-23.752-5.232-46.424-1.68-65.184 8.44-22.888-34.064-60.808-57.2-104.272-59.856-5.592-.768-11.256-1.304-17.056-1.304C57.432 1.724 0 60.948 0 134.012c0 38.072 15.688 72.288 40.648 96.424 22.072 24.488 52.72 40.304 89.008 42.936 0 0 295.432 1.464 296.552 1.464 29.712 0 53.792-25.936 53.792-57.928 0-32.008-24.088-57.944-53.792-57.944" style="fill:#92c7d3"/><circle cx="63.064" cy="325.34" r="24.936" style="fill:#bedde5"/><circle cx="432.96" cy="335.236" r="24.936" style="fill:#bedde5"/><circle cx="207.064" cy="453.34" r="24.936" style="fill:#bedde5"/><path d="M272 334.276h-12.688l8.976-8.976c3.128-3.128 3.128-8.184 0-11.312s-8.184-3.128-11.312 0L248 322.964v-12.688c0-4.416-3.584-8-8-8s-8 3.584-8 8v12.688l-8.976-8.976c-3.128-3.128-8.184-3.128-11.312 0s-3.128 8.184 0 11.312l8.976 8.976H208c-4.416 0-8 3.584-8 8s3.584 8 8 8h12.688l-8.976 8.976a7.99 7.99 0 0 0 0 11.312c1.56 1.56 3.608 2.344 5.656 2.344s4.096-.784 5.656-2.344l8.976-8.976v12.688c0 4.416 3.584 8 8 8s8-3.584 8-8v-12.688l8.976 8.976c1.56 1.56 3.608 2.344 5.656 2.344s4.096-.784 5.656-2.344a7.99 7.99 0 0 0 0-11.312l-8.976-8.976H272c4.416 0 8-3.584 8-8s-3.584-8-8-8M416 422.276h-12.688l8.976-8.976c3.128-3.128 3.128-8.184 0-11.312s-8.184-3.128-11.312 0L392 410.964v-12.688c0-4.416-3.584-8-8-8s-8 3.584-8 8v12.688l-8.976-8.976c-3.128-3.128-8.184-3.128-11.312 0s-3.128 8.184 0 11.312l8.976 8.976H352c-4.416 0-8 3.584-8 8s3.584 8 8 8h12.688l-8.976 8.976a7.99 7.99 0 0 0 0 11.312c1.56 1.56 3.608 2.344 5.656 2.344s4.096-.784 5.656-2.344l8.976-8.976v12.688c0 4.416 3.584 8 8 8s8-3.584 8-8v-12.688l8.976 8.976c1.56 1.56 3.608 2.344 5.656 2.344s4.096-.784 5.656-2.344a7.99 7.99 0 0 0 0-11.312l-8.976-8.976H416c4.416 0 8-3.584 8-8s-3.584-8-8-8M72 430.276H59.312l8.976-8.976c3.128-3.128 3.128-8.184 0-11.312s-8.184-3.128-11.312 0L48 418.964v-12.688c0-4.416-3.584-8-8-8s-8 3.584-8 8v12.688l-8.976-8.976c-3.128-3.128-8.184-3.128-11.312 0s-3.128 8.184 0 11.312l8.976 8.976H8c-4.416 0-8 3.584-8 8s3.584 8 8 8h12.688l-8.976 8.976a7.99 7.99 0 0 0 0 11.312c1.56 1.56 3.608 2.344 5.656 2.344s4.096-.784 5.656-2.344L32 457.588v12.688c0 4.416 3.584 8 8 8s8-3.584 8-8v-12.688l8.976 8.976c1.56 1.56 3.608 2.344 5.656 2.344s4.096-.784 5.656-2.344a7.99 7.99 0 0 0 0-11.312l-8.976-8.976H72c4.416 0 8-3.584 8-8s-3.584-8-8-8" style="fill:#bedde5"/></svg>