<svg xmlns="http://www.w3.org/2000/svg" xml:space="preserve" width="800" height="800" viewBox="0 0 480 480"><path d="M426.208 160.964H383.56c.744-8.16 1.24-9.968 1.256-14.744.128-42.672-28.36-80.592-70.032-89.776-23.752-5.232-46.424-1.68-65.184 8.44-22.888-34.064-60.808-57.2-104.272-59.856-5.592-.768-11.256-1.304-17.056-1.304C57.432 3.724 0 62.948 0 136.012c0 38.072 15.688 72.288 40.648 96.424 22.072 24.488 52.72 40.304 89.008 42.936 0 0 295.432 1.464 296.552 1.464 29.712 0 53.792-25.936 53.792-57.928 0-32.008-24.088-57.944-53.792-57.944" style="fill:#92c7d3"/><circle cx="56" cy="384.276" r="24" style="fill:#bedde5"/><circle cx="428" cy="416.276" r="24" style="fill:#bedde5"/><circle cx="200.96" cy="452.276" r="24" style="fill:#bedde5"/><circle cx="272.96" cy="332.276" r="24" style="fill:#bedde5"/></svg>